<svg width="160" height="40" viewBox="0 0 160 40" fill="none" xmlns="http://www.w3.org/2000/svg">
<g clip-path="url(#clip0_1636_3091)">
<path d="M26.8254 30.5993L25.3818 39.2271L2.86621 39.1855L2.87295 38.8005L3.36019 38.8012C4.70793 38.8036 5.8044 37.7255 5.83198 36.3839L5.87182 15.0255C5.84545 13.6869 4.75515 12.6082 3.40922 12.6058L2.92198 12.6046L2.91646 12.2215L19.9633 12.2534C20.7934 12.2469 21.524 11.5343 21.6913 11.5614C22.584 11.7063 23.0732 11.9755 24.5575 12.3018L24.5428 19.7641L24.1548 19.7579C24.1548 19.7579 22.3018 19.5234 21.6766 19.5063C21.0613 19.4894 21.3269 19.4107 21.4273 18.9324C21.8193 17.0656 20.8749 15.3288 19.3541 15.2701L13.7695 15.2597L13.7492 24.9438L17.9481 24.9511C18.7459 24.9376 19.1562 22.7612 19.4198 21.4804C19.5393 20.9002 19.3493 20.458 19.6405 20.5641C19.9462 20.6755 22.5067 20.9852 22.5067 20.9852L22.4873 31.5428C22.4873 31.5428 22.4824 31.4822 21.3084 31.3878C20.7933 31.3464 20.039 31.3259 19.2446 31.2768C19.0388 31.264 19.6914 30.8201 19.6225 30.4281C19.3947 29.1322 18.7823 26.9026 17.9947 26.8787L13.7462 26.8713L13.7272 37.2567L18.4807 37.2653C20.9174 37.2701 23.0113 33.1216 23.5176 30.6646C23.6372 30.0843 24.024 30.2715 24.9618 30.3816C25.8 30.48 26.8254 30.5993 26.8254 30.5993Z" fill="url(#paint0_linear_1636_3091)"/>
<path d="M55.2711 13.4392C53.5905 13.4398 52.0632 13.3945 51.0673 14.5185L43.56 23.3993L53.1155 36.5028C54.2843 38.0607 55.4727 38.8538 57.038 38.8967L57.0374 39.2792L53.8676 39.2736C52.7742 39.2693 48.107 39.3447 45.5942 36.0652C44.8655 35.0711 38.7188 26.5918 38.7207 26.5403L47.8907 14.4793C48.5403 13.6176 48.0414 12.645 46.9775 12.6431L46.6055 12.6425L46.6061 12.3018L53.3215 12.3143L55.4402 13.0917L55.4396 13.4392H55.2711L55.2711 13.4392Z" fill="url(#paint1_linear_1636_3091)"/>
<path d="M39.6416 13.2468C38.3013 13.2443 37.8017 15.351 37.7619 16.6815L37.7209 36.4409C37.7442 37.7825 38.8357 38.8655 40.1847 38.8673L40.6719 38.8686L40.6774 39.2535L28.9756 39.232L28.983 38.8465L29.4702 38.8477C30.8179 38.8502 31.9138 37.7715 31.942 36.4299L31.9818 15.0628C31.9505 13.7286 30.8621 12.6542 29.5235 12.6536L29.032 12.653L29.0271 12.2675L37.8609 12.2895L40.7271 12.9198L40.7083 13.3628C40.7071 13.428 39.6416 13.2468 39.6416 13.2468H39.6416Z" fill="url(#paint2_linear_1636_3091)"/>
<path d="M59.9023 17.2641L59.5164 17.2635L59.5121 16.9441L69.1303 16.9653C69.1303 16.9653 70.4842 17.3583 70.4827 17.4475C70.4827 17.4475 70.5293 17.8368 70.446 17.8366L70.2102 17.8363C69.15 17.8343 68.1337 18.5202 68.1019 19.6226L68.0706 36.9816C68.0884 38.093 68.9526 38.9902 70.0195 38.9921L70.4047 38.9934L70.409 39.3121L59.4717 39.2909L59.4772 38.9716L59.8631 38.9728C60.93 38.9748 61.7972 38.0808 61.8192 36.9694L61.8505 19.2617C61.826 18.1562 60.9649 17.266 59.9023 17.2641V17.2641Z" fill="url(#paint3_linear_1636_3091)"/>
<path d="M91.2305 14.0958L90.8872 14.0939L91.0462 12.3913L102.725 12.4121L102.58 14.0808L101.522 14.079C100.234 14.0766 99.185 15.0988 99.1415 16.3773L99.1047 35.0846C99.0991 37.9873 100.026 39.9111 100.026 39.9111L99.1905 39.9994L79.7613 21.4302L80.6988 22.3261L80.5848 36.7161C80.6124 38.0038 81.3845 38.9256 82.6796 38.928H83.3079V39.3411L71.6318 39.4086L71.638 39.0231L71.8643 39.0249C73.163 39.0273 74.219 37.9879 74.246 36.6953L74.2834 16.6852C74.2889 13.8218 73.844 11.8728 73.844 11.8728L74.2239 11.8734L93.6218 30.4347L93.6492 15.9104C93.6272 14.6172 92.5304 14.0976 91.2305 14.0958Z" fill="url(#paint4_linear_1636_3091)"/>
<path d="M128.514 21.0471C126.892 15.2768 123.158 13.8445 119.681 13.8353C113.529 13.8237 110.824 18.3253 110.81 26.2217C110.796 33.5016 113.06 38.021 118.178 38.0247C120.687 38.029 123.254 36.6089 123.259 33.9257L123.327 28.6414C123.341 27.5168 122.592 26.883 121.348 26.883L120.741 26.8818L120.742 26.4963L133.679 26.5208L133.678 26.9057L133.097 26.9039C131.852 26.9014 131.15 27.5284 131.181 28.6494L131.169 35.0117C129.316 37.3505 123.764 39.9596 117.345 39.9479C108.242 39.9308 102.319 34.6814 102.336 25.8221C102.352 17.1173 108.101 11.8894 117.774 11.9071C122.011 11.9151 126.965 12.7223 129.226 13.6827L131.319 21.0471L128.834 21.0478L128.514 21.0471V21.0471Z" fill="url(#paint5_linear_1636_3091)"/>
<path d="M145.543 20.7217L152.737 24.0588C155.6 25.3827 157.444 27.8128 157.167 31.5483C156.772 37.0557 152.337 40.0135 145.057 40C140.589 39.9914 137.279 38.868 135.946 37.4933C135.085 35.6093 135.892 31.8474 137.176 30.1993L137.514 30.2C140.319 30.2 140.391 29.4274 140.319 30.2C139.981 33.8647 141.533 38.0672 145.869 38.0755C149.567 38.0823 151.304 36.2749 151.303 34.2922C151.311 32.6932 150.157 31.4196 147.218 30.0553L140.943 27.1423C137.419 25.5034 135.768 22.4954 136.237 18.837C136.785 14.3704 140.063 11.9494 145.225 11.9593C146.612 11.9617 149.491 12.1394 151.726 12.3668L154.723 12.3723L156.685 18.6379H153.88L153.509 18.6372C153.499 15.8266 151.191 13.8966 147.378 13.8892C144.219 13.8831 142.291 15.2278 142.133 17.1149C141.976 18.9633 143.631 19.8526 145.543 20.7217Z" fill="url(#paint6_linear_1636_3091)"/>
<path d="M148.349 20.6534L155.542 23.9906C158.405 25.3144 160.249 27.7445 159.973 31.4801C159.578 36.9875 155.142 39.9453 147.862 39.9318C143.394 39.9232 140.084 38.7998 138.752 37.4251C137.891 35.5411 138.902 31.472 140.185 29.824H140.337C140.072 33.8702 143.282 37.9969 148.675 38.0073C152.372 38.014 154.109 36.2066 154.109 34.224C154.116 32.6249 152.963 31.3514 150.023 29.9871L143.749 27.0741C140.224 25.4352 138.573 22.4271 139.043 18.7688C139.59 14.3021 142.868 11.8812 148.03 11.891C149.417 11.8935 152.296 12.0712 154.531 12.2986L157.528 12.3041L156.685 18.5696L156.315 18.569C156.304 15.7583 153.997 13.8283 150.183 13.821C147.024 13.8149 145.096 15.1595 144.939 17.0466C144.781 18.8951 146.436 19.7844 148.349 20.6534Z" fill="url(#paint7_linear_1636_3091)" stroke="url(#paint8_linear_1636_3091)" stroke-width="0.13642"/>
<path d="M131.319 21.0311C129.698 15.2608 125.964 13.8285 122.486 13.8193C116.335 13.8077 113.63 18.3093 113.615 26.2057C113.602 33.4856 115.866 38.005 120.984 38.0087C123.493 38.013 126.059 36.5929 126.064 33.9097L126.132 28.6254C126.146 27.5008 125.398 26.8671 124.154 26.8671L120.688 26.8658V26.4803L136.485 26.5048L136.483 26.8897L135.903 26.8879C134.658 26.8854 133.956 27.5124 133.987 28.6334L133.974 34.9957C132.121 37.3345 126.57 39.9436 120.151 39.9319C111.047 39.9148 105.125 34.6654 105.142 25.8061C105.158 17.1013 110.907 11.8734 120.58 11.8912C124.817 11.8992 129.77 12.7063 132.032 13.6667L131.64 21.0318L131.319 21.0311Z" fill="url(#paint9_linear_1636_3091)" stroke="url(#paint10_linear_1636_3091)" stroke-width="0.13642"/>
<path d="M91.7621 12.7895L91.0518 12.7877L91.0462 12.4028L102.725 12.4237L102.719 12.8091L102.008 12.8073C100.719 12.8049 99.6702 13.8271 99.6267 15.1056L99.5899 35.0072C99.5843 37.9099 99.9756 39.9359 99.9756 39.9359H99.2236L80.2466 21.3528L80.2184 36.6388C80.246 37.9264 81.2964 38.9641 82.5915 38.9665L83.3024 38.9677L83.3079 39.3526L71.6318 39.3312L71.638 38.9457L72.3495 38.9475C73.6482 38.95 74.7042 37.9105 74.7312 36.6179L74.7686 16.6078C74.7741 13.7444 73.8716 11.8916 73.8716 11.8916H74.3996L94.107 30.3573L94.1358 15.1283C94.1137 13.8351 93.062 12.7914 91.7621 12.7895Z" fill="url(#paint11_linear_1636_3091)" stroke="url(#paint12_linear_1636_3091)" stroke-width="0.13642"/>
<path d="M58.5746 17.296L58.1883 17.2953L58.184 16.976L69.1313 16.9971L69.1258 17.3165L68.7396 17.3159C67.6784 17.3139 66.8139 18.197 66.7821 19.2994L66.7508 37.0135C66.7686 38.1248 67.6468 38.9756 68.7015 39.0239L70.4316 39.0252V39.344L58.1436 39.3228L58.1491 39.0034L58.5353 39.0047C59.6032 39.0066 60.4713 38.1126 60.4934 37.0013L60.5247 19.2936C60.5001 18.188 59.6382 17.2979 58.5746 17.296Z" fill="url(#paint13_linear_1636_3091)" stroke="url(#paint14_linear_1636_3091)" stroke-width="0.13642"/>
<path d="M52.6627 12.7297C50.9822 12.7303 49.4548 13.4584 48.4589 14.5824L40.9516 23.4632L50.5072 36.5667C51.6759 38.1246 52.8643 38.9177 54.4296 38.9606L54.429 39.343L51.2592 39.3375C50.1658 39.3332 45.4987 39.4086 42.9858 36.1291C42.2571 35.135 36.1104 26.6557 36.1123 26.6042L45.2823 14.5432C45.932 13.6815 45.433 12.7089 44.3691 12.707L43.9971 12.7064L43.9977 12.3656L52.8318 12.3822L52.8312 12.7297L52.6627 12.7297ZM37.3669 12.7377C36.0265 12.7352 34.9355 13.801 34.8957 15.1316L34.8547 36.5047C34.878 37.8464 35.9695 38.9293 37.3185 38.9312L37.8057 38.9324L37.8112 39.3173L26.1094 39.2959L26.1167 38.9103L26.604 38.9116C27.9517 38.914 29.0476 37.8353 29.0757 36.4937L29.1156 15.1267C29.0843 13.7924 27.9958 12.718 26.6573 12.7174L26.1658 12.7168L26.1609 12.3313L37.8609 12.3534L37.8541 12.7383L37.3669 12.7377Z" fill="url(#paint15_linear_1636_3091)" stroke="url(#paint16_linear_1636_3091)" stroke-width="0.13642"/>
<path d="M23.6206 30.2159H24.024L22.5156 39.289L0 39.2473L0.00673552 38.8624L0.493975 38.863C1.84172 38.8655 2.93819 37.7874 2.96577 36.4458L3.00561 15.0873C2.97924 13.7488 1.88894 12.6701 0.543012 12.6677L0.0557722 12.6664L0.0502499 12.2834L17.0971 12.3152C18.7574 12.3024 20.9761 11.923 21.6913 11.6233L21.6766 19.4719L21.2886 19.4479V19.2605C21.3021 16.2304 19.5217 14.38 16.4879 14.263L10.9033 14.2526L10.883 25.0057L15.0819 25.013C17.5298 24.9714 19.2679 23.2314 19.2642 20.8123V20.6303L19.6405 20.626L19.621 31.3435L19.2446 31.3386V31.156C19.2575 28.7535 17.5469 27.0141 15.1285 26.9405L10.88 26.9332L10.861 37.3185L15.6145 37.3271C19.3108 37.3345 22.4151 34.6115 23.6206 30.2159Z" fill="url(#paint17_linear_1636_3091)" stroke="url(#paint18_linear_1636_3091)" stroke-width="0.13642"/>
<path d="M74.6927 1.9761C74.4777 1.39614 74.0038 1.11973 73.4021 1.31916C72.7067 1.54966 72.5477 2.08702 72.7622 2.75401C72.8412 2.99949 72.9817 3.33464 72.8784 3.50986C71.9778 5.03814 71.1652 6.6428 70.0557 8.02052C68.8697 9.49307 67.2056 9.51048 65.7498 8.27769C65.0568 7.69084 64.4593 6.9874 63.8877 6.28418C63.7308 6.09109 63.7166 5.66516 63.8222 5.42096C64.0856 4.81118 64.0326 4.24448 63.4555 3.96739C63.1236 3.80798 62.4992 3.88756 62.1833 4.10271C61.6584 4.46015 61.8319 4.99817 62.1104 5.51991C62.2705 5.81969 62.3555 6.24911 62.2667 6.56559C61.8171 8.16648 60.39 9.55561 58.6975 10.3423C60.8886 10.2414 62.6257 9.79603 63.2891 8.10236C64.2745 9.00892 64.8166 9.32187 66.0677 9.78335C65.4578 10.0275 64.1531 9.72768 63.5929 9.95191C65.5044 11.0742 69.1977 10.0289 71.5217 8.71243C71.3603 9.8336 71.2308 10.7329 71.0898 11.7123C66.1662 11.1952 61.9736 11.6296 57.3474 13.1984C57.0181 12.2033 56.8049 11.8058 56.4755 10.8107C59.3241 11.1195 60.4131 9.45361 61.3713 7.41951C60.4256 6.20553 59.5689 5.14948 58.7684 4.05494C58.476 3.6552 58.3549 3.24535 58.8452 2.75456C59.2921 2.30714 59.1418 1.67886 58.599 1.2919C58.083 0.923986 57.5396 0.996616 57.1756 1.52087C56.8021 2.05859 56.8491 2.73016 57.4347 2.98021C58.2301 3.31986 58.276 3.92279 58.3677 4.55038C58.5691 5.9276 58.5102 7.28777 57.7711 8.52508C57.2592 9.38202 56.7281 9.46766 56.024 8.79418C55.1824 7.9892 54.4153 7.11181 53.601 6.27944C53.2703 5.94128 53.1211 5.66472 53.3492 5.15051C53.6072 4.56913 53.2927 4.0291 52.656 3.82144C52.0368 3.61942 51.5653 3.91879 51.3712 4.48894C51.16 5.10908 51.4179 5.69071 52.058 5.81093C52.6893 5.92952 52.8653 6.30379 53.0982 6.75042C54.0868 8.64613 54.5923 11.0115 55.1323 13.2504C55.2476 13.7282 55.0533 14.2511 55.1234 14.7169C55.1342 14.7885 55.0527 14.8873 55.0924 14.9522C55.3124 15.3114 55.3282 15.3352 55.8212 16C61.3096 13.455 66.9139 12.9302 72.8828 14.0793C72.8601 13.654 72.7745 12.6126 72.7617 12.3395C72.6349 9.63748 72.6627 6.94539 73.2586 4.28373C73.3635 3.81527 73.4373 3.45103 74.0585 3.30943C74.7121 3.16047 74.925 2.60262 74.6927 1.97609L74.6927 1.9761Z" fill="url(#paint19_linear_1636_3091)"/>
<path d="M65.0771 6.91944C66.413 8.67537 68.0096 9.12614 69.3654 7.93728C67.5392 6.96089 67.3098 5.2057 67.0873 3.475C67.0458 3.15236 67.2406 2.73026 67.4642 2.46132C67.9449 1.88302 68.0193 1.33595 67.4789 0.810623C67.062 0.405304 66.5253 0.384281 66.1091 0.807479C65.5878 1.33765 65.6435 1.88827 66.1459 2.45925C66.3542 2.69592 66.5543 3.13183 66.4685 3.38534C66.0778 4.53973 65.584 5.66146 65.0772 6.91944H65.0771Z" fill="url(#paint20_linear_1636_3091)"/>
<path d="M74.1781 1.47768C73.963 0.897723 73.4892 0.621307 72.8875 0.820736C72.1921 1.05124 72.033 1.5886 72.2476 2.25559C72.3266 2.50107 72.4671 2.83622 72.3638 3.01144C71.4631 4.53972 70.6506 6.14438 69.541 7.52209C68.355 8.99464 66.691 9.01206 65.2351 7.77927C64.5421 7.19242 63.9447 6.48898 63.3731 5.78576C63.2161 5.59267 63.202 5.16674 63.3075 4.92254C63.571 4.31276 63.5179 3.74606 62.9409 3.46897C62.6089 3.30956 61.9846 3.38914 61.6686 3.60429C61.1438 3.96173 61.3172 4.49975 61.5958 5.02149C61.7558 5.32127 61.8409 5.75069 61.752 6.06717C61.3025 7.66806 60.6176 9.1384 58.9251 9.92505C61.1162 9.82418 62.0188 8.33751 62.6822 6.64384C63.6676 7.55039 64.5668 8.37761 65.5531 9.28493C64.9431 9.52907 64.3829 9.7533 63.8227 9.97754C66.4493 10.5159 68.683 9.53045 71.007 8.21401C70.8456 9.33519 70.7161 10.2345 70.5751 11.2139C65.6516 10.6967 60.9577 11.2971 56.3314 12.8659C56.0021 11.8708 55.7057 10.975 55.3764 9.97985C58.225 10.2887 59.8984 8.9552 60.8566 6.92109C59.911 5.70712 59.0543 4.65107 58.2538 3.55653C57.9614 3.15679 57.8403 2.74694 58.3305 2.25615C58.7775 1.80873 58.6271 1.18045 58.0844 0.793482C57.5684 0.425573 57.025 0.498203 56.6609 1.02245C56.2875 1.56018 56.3344 2.23175 56.9201 2.48179C57.7155 2.82145 57.7613 3.42438 57.8531 4.05196C58.0545 5.42919 57.9956 6.78936 57.2565 8.02667C56.7446 8.88361 56.2134 8.96925 55.5093 8.29577C54.6678 7.49078 53.9007 6.6134 53.0864 5.78102C52.7556 5.44287 52.6064 5.1663 52.8346 4.6521C53.0925 4.07071 52.7781 3.53068 52.1414 3.32302C51.5221 3.12101 51.0507 3.42038 50.8565 3.99053C50.6453 4.61066 50.9033 5.1923 51.5434 5.31252C52.1747 5.43111 52.3506 5.80538 52.5835 6.252C53.9697 8.91003 54.5694 11.7907 55.1454 14.8305C60.6338 12.2854 66.3297 11.6633 72.2987 12.8123C72.2759 12.3871 72.2598 12.1141 72.247 11.8411C72.1203 9.13907 72.148 6.44698 72.744 3.78532C72.8489 3.31686 72.9226 2.95262 73.5439 2.81102C74.1975 2.66206 74.4104 2.10421 74.1781 1.47768L74.1781 1.47768Z" fill="url(#paint21_linear_1636_3091)" stroke="url(#paint22_linear_1636_3091)" stroke-width="0.13642"/>
<path d="M64.5625 6.42114C65.8983 8.17708 67.495 8.62785 68.8507 7.43899C67.0245 6.4626 66.7952 4.70741 66.5727 2.97671C66.5312 2.65407 66.7259 2.23196 66.9495 1.96303C67.4303 1.38472 67.5047 0.837656 66.9643 0.312332C66.5473 -0.092987 66.0106 -0.11401 65.5945 0.309188C65.0731 0.839364 65.1288 1.38998 65.6313 1.96096C65.8396 2.19762 66.0397 2.63354 65.9539 2.88705C65.5632 4.04144 65.0694 5.16317 64.5625 6.42114Z" fill="url(#paint23_linear_1636_3091)" stroke="url(#paint24_linear_1636_3091)" stroke-width="0.13642"/>
</g>
<defs>
<linearGradient id="paint0_linear_1636_3091" x1="14.8458" y1="39.2271" x2="14.8458" y2="11.5607" gradientUnits="userSpaceOnUse">
<stop stop-color="#784408"/>
<stop offset="0.20391" stop-color="#784108"/>
<stop offset="0.46648" stop-color="#A6872C"/>
<stop offset="0.76816" stop-color="#A48A02"/>
<stop offset="1" stop-color="#724A08"/>
</linearGradient>
<linearGradient id="paint1_linear_1636_3091" x1="47.8794" y1="39.2792" x2="47.8794" y2="12.3018" gradientUnits="userSpaceOnUse">
<stop stop-color="#784408"/>
<stop offset="0.20391" stop-color="#784108"/>
<stop offset="0.46648" stop-color="#A6872C"/>
<stop offset="0.76816" stop-color="#A48A02"/>
<stop offset="1" stop-color="#724A08"/>
</linearGradient>
<linearGradient id="paint2_linear_1636_3091" x1="34.8513" y1="39.2535" x2="34.8513" y2="12.2675" gradientUnits="userSpaceOnUse">
<stop stop-color="#784408"/>
<stop offset="0.20391" stop-color="#784108"/>
<stop offset="0.46648" stop-color="#A6872C"/>
<stop offset="0.76816" stop-color="#A48A02"/>
<stop offset="1" stop-color="#724A08"/>
</linearGradient>
<linearGradient id="paint3_linear_1636_3091" x1="64.9837" y1="39.3121" x2="64.9837" y2="16.9441" gradientUnits="userSpaceOnUse">
<stop stop-color="#784408"/>
<stop offset="0.20391" stop-color="#784108"/>
<stop offset="0.46648" stop-color="#A6872C"/>
<stop offset="0.76816" stop-color="#A48A02"/>
<stop offset="1" stop-color="#724A08"/>
</linearGradient>
<linearGradient id="paint4_linear_1636_3091" x1="87.1786" y1="39.9994" x2="87.1786" y2="11.8728" gradientUnits="userSpaceOnUse">
<stop stop-color="#784408"/>
<stop offset="0.20391" stop-color="#784108"/>
<stop offset="0.46648" stop-color="#A6872C"/>
<stop offset="0.76816" stop-color="#A48A02"/>
<stop offset="1" stop-color="#724A08"/>
</linearGradient>
<linearGradient id="paint5_linear_1636_3091" x1="118.007" y1="39.948" x2="118.007" y2="11.9071" gradientUnits="userSpaceOnUse">
<stop stop-color="#784408"/>
<stop offset="0.20391" stop-color="#784108"/>
<stop offset="0.46648" stop-color="#A6872C"/>
<stop offset="0.76816" stop-color="#A48A02"/>
<stop offset="1" stop-color="#724A08"/>
</linearGradient>
<linearGradient id="paint6_linear_1636_3091" x1="146.392" y1="40.0001" x2="146.392" y2="11.9592" gradientUnits="userSpaceOnUse">
<stop stop-color="#784408"/>
<stop offset="0.20391" stop-color="#784108"/>
<stop offset="0.46648" stop-color="#A6872C"/>
<stop offset="0.76816" stop-color="#A48A02"/>
<stop offset="1" stop-color="#724A08"/>
</linearGradient>
<linearGradient id="paint7_linear_1636_3091" x1="79.8768" y1="39.9318" x2="79.8768" y2="11.4932" gradientUnits="userSpaceOnUse">
<stop offset="0.00562" stop-color="#D4BF74"/>
<stop offset="0.18156" stop-color="#E6DC93"/>
<stop offset="0.36034" stop-color="#CEB969"/>
<stop offset="0.50559" stop-color="#EDEBA2"/>
<stop offset="0.62849" stop-color="#CBB364"/>
<stop offset="0.77986" stop-color="#CFBA68"/>
<stop offset="0.98195" stop-color="#FAF5C3"/>
<stop offset="1" stop-color="#FFFBCC"/>
</linearGradient>
<linearGradient id="paint8_linear_1636_3091" x1="-0.316016" y1="25.6953" x2="160.068" y2="25.6953" gradientUnits="userSpaceOnUse">
<stop offset="0.00562" stop-color="#D4BF74"/>
<stop offset="0.18156" stop-color="#E6DC93"/>
<stop offset="0.36034" stop-color="#CEB969"/>
<stop offset="0.50559" stop-color="#EDEBA2"/>
<stop offset="0.62849" stop-color="#CBB364"/>
<stop offset="0.77986" stop-color="#CFBA68"/>
<stop offset="0.98195" stop-color="#FAF5C3"/>
<stop offset="1" stop-color="#FFFBCC"/>
</linearGradient>
<linearGradient id="paint9_linear_1636_3091" x1="80.1232" y1="39.9841" x2="80.1232" y2="11.5455" gradientUnits="userSpaceOnUse">
<stop offset="0.00562" stop-color="#D4BF74"/>
<stop offset="0.18156" stop-color="#E6DC93"/>
<stop offset="0.36034" stop-color="#CEB969"/>
<stop offset="0.50559" stop-color="#EDEBA2"/>
<stop offset="0.62849" stop-color="#CBB364"/>
<stop offset="0.77986" stop-color="#CFBA68"/>
<stop offset="0.98195" stop-color="#FAF5C3"/>
<stop offset="1" stop-color="#FFFBCC"/>
</linearGradient>
<linearGradient id="paint10_linear_1636_3091" x1="-0.069616" y1="25.7476" x2="160.315" y2="25.7476" gradientUnits="userSpaceOnUse">
<stop offset="0.00562" stop-color="#D4BF74"/>
<stop offset="0.18156" stop-color="#E6DC93"/>
<stop offset="0.36034" stop-color="#CEB969"/>
<stop offset="0.50559" stop-color="#EDEBA2"/>
<stop offset="0.62849" stop-color="#CBB364"/>
<stop offset="0.77986" stop-color="#CFBA68"/>
<stop offset="0.98195" stop-color="#FAF5C3"/>
<stop offset="1" stop-color="#FFFBCC"/>
</linearGradient>
<linearGradient id="paint11_linear_1636_3091" x1="80.1229" y1="40.0115" x2="80.1229" y2="11.5729" gradientUnits="userSpaceOnUse">
<stop offset="0.00562" stop-color="#D4BF74"/>
<stop offset="0.18156" stop-color="#E6DC93"/>
<stop offset="0.36034" stop-color="#CEB969"/>
<stop offset="0.50559" stop-color="#EDEBA2"/>
<stop offset="0.62849" stop-color="#CBB364"/>
<stop offset="0.77986" stop-color="#CFBA68"/>
<stop offset="0.98195" stop-color="#FAF5C3"/>
<stop offset="1" stop-color="#FFFBCC"/>
</linearGradient>
<linearGradient id="paint12_linear_1636_3091" x1="-0.0698653" y1="25.775" x2="160.315" y2="25.775" gradientUnits="userSpaceOnUse">
<stop offset="0.00562" stop-color="#D4BF74"/>
<stop offset="0.18156" stop-color="#E6DC93"/>
<stop offset="0.36034" stop-color="#CEB969"/>
<stop offset="0.50559" stop-color="#EDEBA2"/>
<stop offset="0.62849" stop-color="#CBB364"/>
<stop offset="0.77986" stop-color="#CFBA68"/>
<stop offset="0.98195" stop-color="#FAF5C3"/>
<stop offset="1" stop-color="#FFFBCC"/>
</linearGradient>
<linearGradient id="paint13_linear_1636_3091" x1="81.4219" y1="40.0648" x2="81.4219" y2="10.3077" gradientUnits="userSpaceOnUse">
<stop offset="0.00562" stop-color="#D4BF74"/>
<stop offset="0.18156" stop-color="#E6DC93"/>
<stop offset="0.36034" stop-color="#CEB969"/>
<stop offset="0.50559" stop-color="#EDEBA2"/>
<stop offset="0.62849" stop-color="#CBB364"/>
<stop offset="0.77986" stop-color="#CFBA68"/>
<stop offset="0.98195" stop-color="#FAF5C3"/>
<stop offset="1" stop-color="#FFFBCC"/>
</linearGradient>
<linearGradient id="paint14_linear_1636_3091" x1="1.20758" y1="25.1683" x2="161.635" y2="25.1683" gradientUnits="userSpaceOnUse">
<stop offset="0.00562" stop-color="#D4BF74"/>
<stop offset="0.18156" stop-color="#E6DC93"/>
<stop offset="0.36034" stop-color="#CEB969"/>
<stop offset="0.50559" stop-color="#EDEBA2"/>
<stop offset="0.62849" stop-color="#CBB364"/>
<stop offset="0.77986" stop-color="#CFBA68"/>
<stop offset="0.98195" stop-color="#FAF5C3"/>
<stop offset="1" stop-color="#FFFBCC"/>
</linearGradient>
<linearGradient id="paint15_linear_1636_3091" x1="80.1232" y1="40.0639" x2="80.1232" y2="11.6253" gradientUnits="userSpaceOnUse">
<stop offset="0.00562" stop-color="#D4BF74"/>
<stop offset="0.18156" stop-color="#E6DC93"/>
<stop offset="0.36034" stop-color="#CEB969"/>
<stop offset="0.50559" stop-color="#EDEBA2"/>
<stop offset="0.62849" stop-color="#CBB364"/>
<stop offset="0.77986" stop-color="#CFBA68"/>
<stop offset="0.98195" stop-color="#FAF5C3"/>
<stop offset="1" stop-color="#FFFBCC"/>
</linearGradient>
<linearGradient id="paint16_linear_1636_3091" x1="-0.0695861" y1="25.8274" x2="160.315" y2="25.8274" gradientUnits="userSpaceOnUse">
<stop offset="0.00562" stop-color="#D4BF74"/>
<stop offset="0.18156" stop-color="#E6DC93"/>
<stop offset="0.36034" stop-color="#CEB969"/>
<stop offset="0.50559" stop-color="#EDEBA2"/>
<stop offset="0.62849" stop-color="#CBB364"/>
<stop offset="0.77986" stop-color="#CFBA68"/>
<stop offset="0.98195" stop-color="#FAF5C3"/>
<stop offset="1" stop-color="#FFFBCC"/>
</linearGradient>
<linearGradient id="paint17_linear_1636_3091" x1="80.1234" y1="40.0619" x2="80.1234" y2="11.6233" gradientUnits="userSpaceOnUse">
<stop offset="0.00562" stop-color="#D4BF74"/>
<stop offset="0.18156" stop-color="#E6DC93"/>
<stop offset="0.36034" stop-color="#CEB969"/>
<stop offset="0.50559" stop-color="#EDEBA2"/>
<stop offset="0.62849" stop-color="#CBB364"/>
<stop offset="0.77986" stop-color="#CFBA68"/>
<stop offset="0.98195" stop-color="#FAF5C3"/>
<stop offset="1" stop-color="#FFFBCC"/>
</linearGradient>
<linearGradient id="paint18_linear_1636_3091" x1="-0.0694106" y1="25.8254" x2="160.315" y2="25.8254" gradientUnits="userSpaceOnUse">
<stop offset="0.00562" stop-color="#D4BF74"/>
<stop offset="0.18156" stop-color="#E6DC93"/>
<stop offset="0.36034" stop-color="#CEB969"/>
<stop offset="0.50559" stop-color="#EDEBA2"/>
<stop offset="0.62849" stop-color="#CBB364"/>
<stop offset="0.77986" stop-color="#CFBA68"/>
<stop offset="0.98195" stop-color="#FAF5C3"/>
<stop offset="1" stop-color="#FFFBCC"/>
</linearGradient>
<linearGradient id="paint19_linear_1636_3091" x1="74.3701" y1="14.3211" x2="63.0311" y2="7.02124" gradientUnits="userSpaceOnUse">
<stop stop-color="#784408"/>
<stop offset="0.20391" stop-color="#784108"/>
<stop offset="0.51676" stop-color="#BC8F14"/>
<stop offset="0.76257" stop-color="#A48002"/>
<stop offset="1" stop-color="#724A08"/>
</linearGradient>
<linearGradient id="paint20_linear_1636_3091" x1="76.4283" y1="10.1951" x2="65.32" y2="3.04378" gradientUnits="userSpaceOnUse">
<stop stop-color="#784408"/>
<stop offset="0.20391" stop-color="#784108"/>
<stop offset="0.51676" stop-color="#BC8F14"/>
<stop offset="0.76257" stop-color="#A48002"/>
<stop offset="1" stop-color="#724A08"/>
</linearGradient>
<linearGradient id="paint21_linear_1636_3091" x1="50.7685" y1="8.28877" x2="67.4555" y2="6.37266" gradientUnits="userSpaceOnUse">
<stop offset="0.00562" stop-color="#D4BF74"/>
<stop offset="0.18156" stop-color="#E6DC93"/>
<stop offset="0.36034" stop-color="#CEB969"/>
<stop offset="0.50559" stop-color="#EDEBA2"/>
<stop offset="0.62849" stop-color="#CBB364"/>
<stop offset="0.77986" stop-color="#CFBA68"/>
<stop offset="0.98195" stop-color="#FAF5C3"/>
<stop offset="1" stop-color="#FFFBCC"/>
</linearGradient>
<linearGradient id="paint22_linear_1636_3091" x1="50.716" y1="7.71255" x2="74.3372" y2="7.71255" gradientUnits="userSpaceOnUse">
<stop offset="0.00562" stop-color="#D4BF74"/>
<stop offset="0.18156" stop-color="#E6DC93"/>
<stop offset="0.36034" stop-color="#CEB969"/>
<stop offset="0.50559" stop-color="#EDEBA2"/>
<stop offset="0.62849" stop-color="#CBB364"/>
<stop offset="0.77986" stop-color="#CFBA68"/>
<stop offset="0.98195" stop-color="#FAF5C3"/>
<stop offset="1" stop-color="#FFFBCC"/>
</linearGradient>
<linearGradient id="paint23_linear_1636_3091" x1="50.4829" y1="5.80446" x2="67.1699" y2="3.88835" gradientUnits="userSpaceOnUse">
<stop offset="0.00562" stop-color="#D4BF74"/>
<stop offset="0.18156" stop-color="#E6DC93"/>
<stop offset="0.36034" stop-color="#CEB969"/>
<stop offset="0.50559" stop-color="#EDEBA2"/>
<stop offset="0.62849" stop-color="#CBB364"/>
<stop offset="0.77986" stop-color="#CFBA68"/>
<stop offset="0.98195" stop-color="#FAF5C3"/>
<stop offset="1" stop-color="#FFFBCC"/>
</linearGradient>
<linearGradient id="paint24_linear_1636_3091" x1="64.4854" y1="4.0512" x2="68.9671" y2="4.0512" gradientUnits="userSpaceOnUse">
<stop offset="0.00562" stop-color="#D4BF74"/>
<stop offset="0.18156" stop-color="#E6DC93"/>
<stop offset="0.36034" stop-color="#CEB969"/>
<stop offset="0.50559" stop-color="#EDEBA2"/>
<stop offset="0.62849" stop-color="#CBB364"/>
<stop offset="0.77986" stop-color="#CFBA68"/>
<stop offset="0.98195" stop-color="#FAF5C3"/>
<stop offset="1" stop-color="#FFFBCC"/>
</linearGradient>
<clipPath id="clip0_1636_3091">
<rect width="160" height="40" fill="white"/>
</clipPath>
</defs>
</svg>
