<?xml version="1.0" standalone="no"?>
<!DOCTYPE svg PUBLIC "-//W3C//DTD SVG 1.1//EN" "http://www.w3.org/Graphics/SVG/1.1/DTD/svg11.dtd" >
<svg xmlns="http://www.w3.org/2000/svg">
<metadata>Generated by IcoMoon</metadata>
<defs>
<font id="tk-icon-font" horiz-adv-x="1024">
<font-face units-per-em="1024" ascent="960" descent="-64" />
<missing-glyph horiz-adv-x="1024" />
<glyph unicode="&#x20;" horiz-adv-x="512" d="" />
<glyph unicode="&#xe900;" glyph-name="lottery-1" d="M995.575 523.031l-44.747 112.975-39.603-15.161c-25.889-9.881-55.338 3.010-65.492 28.736-10.29 25.726 2.299 55.338 27.889 65.793l39.328 16.147-44.747 112.813c-24.030 60.347-92.531 89.959-153.016 65.93l-640.8-254.252c-60.347-23.891-90.069-92.531-66.067-152.879l44.911-113.112 0.274 0.137v-120.557l42.612-0.137c1.698 0 3.237-0.133 4.799-0.267h0.002l0.071-0.008c25.726-2.572 45.896-24.439 45.896-50.63 0-12.728-4.707-24.439-12.589-33.308-9.141-10.728-22.88-17.434-38.179-17.597l-42.612-0.275v-121.679c0-64.918 52.766-117.682 117.684-117.682h689.543c64.918 0 117.82 52.764 117.82 117.682v121.543l-42.476 0.576c-27.752 0.273-50.331 23.152-50.331 50.766 0 27.616 22.606 50.632 50.331 50.905l42.476 0.576v121.268c0 4.871-0.275 9.579-0.849 14.286 25.726 31.885 34.184 76.495 17.872 117.411zM892.753 355.591v-7.58c-53.917-18.446-92.807-69.652-92.807-129.426 0-59.771 38.89-110.813 92.807-129.259v-43.626c0-17.597-14.45-31.883-32.021-31.883h-689.516c-17.598 0-31.884 14.286-31.884 31.883v43.189c19.732 6.732 37.467 17.597 52.054 31.883 20.581 20.006 34.757 46.472 39.602 75.921 1.15 7.142 1.725 14.45 1.725 21.867 0 20.171-4.433 39.464-12.453 56.762-12.726 27.75-34.457 50.467-61.36 64.48-6.295 3.283-12.863 5.993-19.596 8.292v43.187c0 3.010 0.438 5.857 1.286 8.594 3.722 13.438 16.010 23.454 30.598 23.454h689.543c17.597 0 32.021-14.45 32.021-32.019v-35.718zM860.732 509.183h-689.516c-20.444 0-39.766-5.283-56.488-14.587-3.576 0.273-7.125 0.137-10.701 0h-0.027l-15.874 40.175c-6.568 16.45 1.423 35.033 17.871 41.464l640.91 254.388c16.312 6.432 35.031-1.587 41.462-18.008l16.011-40.177c-43.187-37.029-60.484-98.963-38.48-154.44 22.032-55.475 77.069-88.809 133.859-86.072l14.013-35.469c-16.011 8.154-34.047 12.726-53.039 12.726zM347.961 303.807l-42.914 0.275 0.438 77.752 42.886-0.273-0.41-77.754zM304.337 182.539l42.886-0.137 0.438 77.754-42.886 0.273-0.438-77.89zM303.761 61.133l42.914-0.273 0.273 76.166-42.886 0.301-0.301-76.194zM252.332 571.326l39.98 15.595 22.070-56.577-39.98-15.595-22.070 56.577z" />
<glyph unicode="&#xe901;" glyph-name="user-fill-2" d="M512 426.667c-94.293 0-170.667 76.373-170.667 170.667s76.373 170.667 170.667 170.667c94.293 0 170.667-76.373 170.667-170.667s-76.373-170.667-170.667-170.667zM512 341.334c113.92 0 341.333-57.173 341.333-170.667v-42.667c0-23.467-19.2-42.667-42.667-42.667h-597.333c-23.467 0-42.667 19.2-42.667 42.667v42.667c0 113.493 227.413 170.667 341.333 170.667z" />
<glyph unicode="&#xe903;" glyph-name="arrow-down-2" d="M299.593 591.113l212.68-212.683 212.682 212.683c21.38 21.38 55.91 21.38 77.29 0s21.38-55.912 0-77.292l-251.604-251.604c-21.38-21.38-55.91-21.38-77.29 0l-251.599 251.604c-21.38 21.38-21.38 55.912 0 77.292 21.38 20.828 56.462 21.38 77.837 0z" />
<glyph unicode="&#xe904;" glyph-name="arrow-down-fill-1" d="M316.284 461.501l153.899-153.899c23.172-23.172 60.608-23.172 83.78 0l153.899 153.899c37.436 37.436 10.697 101.611-42.189 101.611h-307.795c-52.884 0-79.029-64.175-41.594-101.611z" />
<glyph unicode="&#xe905;" glyph-name="arrow-up-fill-1" d="M316.284 391.83l153.899 153.899c23.172 23.174 60.608 23.174 83.78 0l153.899-153.899c37.436-37.436 10.697-101.606-42.189-101.606h-307.795c-52.884 0-79.029 64.171-41.594 101.606z" />
<glyph unicode="&#xe906;" glyph-name="arrow-left-2" d="M665.77 228.044l-198.877 198.877 198.877 198.878c19.988 19.988 19.988 52.28 0 72.274s-52.28 19.988-72.274 0l-235.273-235.273c-19.988-19.988-19.988-52.28 0-72.274l235.273-235.272c19.988-19.988 52.28-19.988 72.274 0 19.477 19.988 19.988 52.797 0 72.785z" />
<glyph unicode="&#xe907;" glyph-name="arrow-left-1" d="M801.761 469.119h-476.588l208.215 208.215c16.64 16.64 16.64 43.947 0 60.587s-43.52 16.64-60.16 0l-281.175-281.175c-16.64-16.64-16.64-43.52 0-60.16l281.175-281.173c16.64-16.64 43.52-16.64 60.16 0s16.64 43.52 0 60.16l-208.215 208.213h476.588c23.467 0 42.667 19.2 42.667 42.667s-19.2 42.667-42.667 42.667z" />
<glyph unicode="&#xe908;" glyph-name="arrow-right-2" d="M362.524 233.592l193.323 193.322-193.323 193.323c-19.43 19.43-19.43 50.82 0 70.255s50.821 19.43 70.256 0l228.7-228.701c19.43-19.43 19.43-50.82 0-70.255l-228.7-228.7c-19.43-19.43-50.821-19.43-70.256 0-18.933 19.43-19.43 51.322 0 70.752z" />
<glyph unicode="&#xe909;" glyph-name="arrow-right-1" d="M222.24 384h476.587l-208.213-208.213c-16.64-16.64-16.64-43.947 0-60.587s43.52-16.64 60.16 0l281.173 281.173c16.64 16.64 16.64 43.52 0 60.16l-280.747 281.601c-16.64 16.64-43.52 16.64-60.16 0s-16.64-43.52 0-60.16l207.787-208.641h-476.587c-23.467 0-42.667-19.2-42.667-42.667s19.2-42.667 42.667-42.667z" />
<glyph unicode="&#xe90a;" glyph-name="arrow-up-2" d="M299.593 262.222l212.68 212.682 212.682-212.682c21.38-21.38 55.91-21.38 77.29 0s21.38 55.91 0 77.29l-251.605 251.606c-21.38 21.38-55.91 21.38-77.29 0l-251.601-251.606c-21.38-21.38-21.38-55.91 0-77.29 21.38-20.828 56.462-21.38 77.837 0z" />
<glyph unicode="&#xe90b;" glyph-name="arrow-up-1" d="M554.666 136.907v476.588l208.213-208.214c16.64-16.64 43.947-16.64 60.587 0s16.64 43.52 0 60.16l-281.173 281.174c-16.64 16.64-43.52 16.64-60.16 0l-281.599-280.748c-16.64-16.64-16.64-43.52 0-60.16s43.52-16.64 60.16 0l208.639 207.788v-476.588c0-23.467 19.2-42.667 42.667-42.667s42.667 19.2 42.667 42.667z" />
<glyph unicode="&#xe90c;" glyph-name="arrow-down-1" d="M469.547 716.427v-476.587l-208.212 208.213c-16.64 16.64-43.947 16.64-60.587 0s-16.64-43.52 0-60.16l281.172-281.173c16.64-16.64 43.52-16.64 60.16 0l281.173 281.173c16.64 16.64 16.64 43.52 0 60.16s-43.52 16.64-60.16 0l-208.213-208.213v476.587c0 23.467-19.2 42.667-42.667 42.667s-42.667-19.2-42.667-42.667z" />
<glyph unicode="&#xe912;" glyph-name="eye-off-1" d="M508.001 308.606c29.705 0 58.193 11.802 79.198 32.806 21.005 21.001 32.802 49.489 32.802 79.194 0 3.281-0.149 6.532-0.427 9.741l-121.314-121.31c3.213-0.282 6.451-0.431 9.741-0.431zM878.723 767.047l-42.722 42.68c-1.498 1.499-3.533 2.341-5.653 2.341s-4.156-0.842-5.653-2.341l-109.321-109.35c-60.309 30.82-128.098 46.23-203.371 46.23-192.201 0-335.601-100.1-430.201-300.298-3.802-8.055-5.775-16.849-5.775-25.754s1.972-17.698 5.775-25.749c37.8-79.62 83.316-143.437 136.55-191.45l-105.79-105.749c-1.499-1.502-2.341-3.533-2.341-5.653s0.842-4.156 2.341-5.658l42.69-42.688c1.5-1.502 3.534-2.342 5.655-2.342s4.155 0.841 5.655 2.342l712.161 712.119c0.742 0.743 1.331 1.626 1.737 2.597 0.401 0.971 0.61 2.012 0.61 3.063s-0.209 2.092-0.61 3.063c-0.405 0.971-0.994 1.853-1.737 2.597zM332.002 420.606c-0.003 30.4 7.869 60.284 22.847 86.735 14.979 26.453 36.553 48.576 62.623 64.212 26.068 15.637 55.743 24.255 86.135 25.014s60.459-6.366 87.275-20.681l-48.619-48.62c-19.61 6.278-40.567 7.035-60.578 2.185-20.006-4.849-38.293-15.116-52.851-29.673-14.56-14.558-24.827-32.845-29.676-52.855s-4.093-40.969 2.186-60.578l-48.62-48.619c-13.644 25.493-20.762 53.965-20.72 82.88zM942.194 446.42c-35.2 74.135-77.094 134.585-125.687 181.351l-144.141-144.15c12.151-31.761 14.844-66.359 7.753-99.622-7.087-33.259-23.654-63.753-47.701-87.799-24.047-24.043-54.541-40.614-87.799-47.701-33.259-7.091-67.861-4.395-99.622 7.753l-122.259-122.257c56.72-26.249 119.806-39.373 189.259-39.373 192.201 0 335.603 100.1 430.199 300.301 3.806 8.051 5.777 16.845 5.777 25.749s-1.971 17.698-5.777 25.749z" />
<glyph unicode="&#xe913;" glyph-name="eye-1" d="M395.999 426.666c0-29.705 11.8-58.193 32.805-79.198 21.005-21.001 49.489-32.802 79.194-32.802s58.193 11.802 79.198 32.802c21.005 21.005 32.802 49.493 32.802 79.198s-11.797 58.193-32.802 79.198c-21.005 21.002-49.493 32.802-79.198 32.802s-58.189-11.8-79.194-32.802c-21.005-21.005-32.805-49.493-32.805-79.198zM942.2 452.467c-94.801 199.7-238.101 300.199-430.199 300.199-192.201 0-335.401-100.5-430.201-300.302-3.802-8.051-5.775-16.845-5.775-25.749s1.972-17.698 5.775-25.749c94.8-199.701 238.1-300.198 430.201-300.198 192.201 0 335.398 100.497 430.199 300.301 7.701 16.196 7.701 34.999 0 51.499zM507.998 250.666c-97.199 0-175.999 78.801-175.999 176s78.8 176 175.999 176c97.203 0 176-78.8 176-176s-78.797-176-176-176z" />
<glyph unicode="&#xe915;" glyph-name="home-fill-2" d="M421.731 96.308v225.425h180.333v-225.425c0-24.801 20.291-45.081 45.081-45.081h135.253c24.801 0 45.081 20.291 45.081 45.081v315.588h76.645c20.738 0 30.66 25.694 14.878 39.221l-376.908 339.485c-17.132 15.325-43.284 15.325-60.416 0l-376.908-339.485c-15.325-13.528-5.86-39.221 14.878-39.221h76.645v-315.588c0-24.801 20.291-45.081 45.081-45.081h135.253c24.801 0 45.081 20.291 45.081 45.081z" />
<glyph unicode="&#xe916;" glyph-name="tv-1" d="M448 211.2c-28.587-16.213-64 4.693-64 37.547v194.133c0 32.427 35.413 53.333 64 37.12l169.813-97.28c28.587-16.64 28.587-58.027 0-74.24l-169.813-97.28zM896 686.935h-323.84l125.44 125.44c8.533 8.533 8.533 21.76 0 30.293s-21.76 8.533-30.293 0l-155.307-155.307-155.307 155.307c-8.533 8.533-21.76 8.533-30.293 0s-8.533-21.76 0-30.293l125.44-125.44h-323.84c-46.933 0-85.333-37.973-85.333-85.333v-512.002c0-46.933 38.4-85.333 85.333-85.333h768c46.933 0 85.333 38.4 85.333 85.333v512.002c0 47.36-38.4 85.333-85.333 85.333zM853.333 89.6h-682.667c-23.467 0-42.667 19.2-42.667 42.667v426.669c0 23.467 19.2 42.667 42.667 42.667h682.667c23.467 0 42.667-19.2 42.667-42.667v-426.669c0-23.467-19.2-42.667-42.667-42.667z" />
<glyph unicode="&#xe917;" glyph-name="menu-1" d="M64 768h497.779v-85.333h-497.779v85.333zM64 469.334h896v-85.333h-896v85.333zM561.779 170.667h398.221v-85.333h-398.221v85.333z" />
<glyph unicode="&#xe91a;" glyph-name="search-1" d="M681.667 321.214h-33.707l-11.947 11.52c51.2 59.733 77.653 141.227 63.147 227.839-20.053 118.613-119.040 213.333-238.507 227.84-180.478 22.187-332.371-129.707-310.185-310.186 14.507-119.467 109.227-218.453 227.84-238.507 86.611-14.507 168.105 11.947 227.838 63.147l11.52-11.947v-33.707l181.333-181.333c17.493-17.493 46.080-17.493 63.573 0s17.493 46.080 0 63.573l-180.907 181.76zM425.669 321.214c-106.24 0-192 85.76-192 191.999s85.76 192 192 192c106.238 0 191.998-85.76 191.998-192s-85.76-191.999-191.998-191.999z" />
<glyph unicode="&#xe91d;" glyph-name="card-1" d="M853.333 853.333h-426.667c-33.948 0-66.505-13.486-90.51-37.49s-37.49-56.562-37.49-90.51v-298.667c0-33.946 13.486-66.505 37.49-90.509s56.562-37.491 90.51-37.491h426.667c33.946 0 66.505 13.487 90.509 37.491s37.491 56.563 37.491 90.509v298.667c0 33.948-13.487 66.505-37.491 90.51s-56.563 37.49-90.509 37.49zM896 426.666c0-11.315-4.497-22.17-12.497-30.17s-18.854-12.497-30.17-12.497h-426.667c-11.316 0-22.168 4.497-30.17 12.497s-12.497 18.854-12.497 30.17v298.667c0 11.316 4.495 22.168 12.497 30.17s18.854 12.497 30.17 12.497h426.667c11.315 0 22.17-4.495 30.17-12.497s12.497-18.854 12.497-30.17v-298.667zM746.667 597.333c-15.795-0.053-31.006-5.985-42.667-16.64-9.173 8.339-20.574 13.834-32.815 15.817-12.237 1.982-24.789 0.367-36.126-4.649s-20.975-13.218-27.742-23.608c-6.763-10.39-10.364-22.522-10.364-34.92s3.601-24.529 10.364-34.918c6.767-10.394 16.405-18.594 27.742-23.607 11.337-5.018 23.889-6.635 36.126-4.651 12.241 1.984 23.642 7.479 32.815 15.817 7.706-7.002 17.003-12.019 27.085-14.618 10.082-2.594 20.646-2.692 30.775-0.282s19.516 7.253 27.349 14.114c7.834 6.861 13.875 15.526 17.6 25.25 3.725 9.721 5.022 20.205 3.776 30.543-1.242 10.337-4.988 20.215-10.914 28.776s-13.85 15.548-23.087 20.353c-9.237 4.806-19.507 7.285-29.918 7.223zM682.667 213.333c-11.315 0-22.17-4.497-30.17-12.497s-12.497-18.854-12.497-30.17v-42.667c0-11.315-4.497-22.17-12.497-30.17s-18.854-12.497-30.17-12.497h-426.667c-11.316 0-22.168 4.497-30.17 12.497s-12.497 18.854-12.497 30.17v170.667h42.667c11.316 0 22.168 4.497 30.17 12.497s12.497 18.854 12.497 30.17c0 11.315-4.495 22.17-12.497 30.17s-18.854 12.497-30.17 12.497h-42.667v42.667c0 11.315 4.495 22.17 12.497 30.17s18.854 12.497 30.17 12.497c11.316 0 22.168 4.497 30.17 12.497s12.497 18.854 12.497 30.17c0 11.316-4.495 22.168-12.497 30.17s-18.854 12.497-30.17 12.497c-33.948 0-66.505-13.486-90.51-37.49s-37.49-56.564-37.49-90.51v-298.667c0-33.946 13.486-66.505 37.49-90.509s56.562-37.491 90.51-37.491h426.667c33.946 0 66.505 13.487 90.509 37.491s37.491 56.563 37.491 90.509v42.667c0 11.315-4.497 22.17-12.497 30.17s-18.854 12.497-30.17 12.497zM256 170.666h42.667c11.316 0 22.168 4.497 30.17 12.497s12.497 18.854 12.497 30.17c0 11.315-4.495 22.17-12.497 30.17s-18.854 12.497-30.17 12.497h-42.667c-11.316 0-22.168-4.497-30.17-12.497s-12.497-18.854-12.497-30.17c0-11.315 4.495-22.17 12.497-30.17s18.854-12.497 30.17-12.497z" />
<glyph unicode="&#xe91f;" glyph-name="date-1" d="M384.001 469.334h-85.333v-85.333h85.333v85.333zM554.668 469.334h-85.333v-85.333h85.333v85.333zM725.334 469.334h-85.333v-85.333h85.333v85.333zM810.668 768h-42.667v85.333h-85.333v-85.333h-341.333v85.333h-85.333v-85.333h-42.667c-47.36 0-84.907-38.4-84.907-85.333l-0.427-597.333c0-46.933 37.973-85.333 85.333-85.333h597.333c46.933 0 85.333 38.4 85.333 85.333v597.333c0 46.933-38.4 85.333-85.333 85.333zM810.668 85.334h-597.333v469.333h597.333v-469.333z" />
<glyph unicode="&#xe920;" glyph-name="date-2" d="M810.668 768h-42.667v85.333h-85.333v-85.333h-341.333v85.333h-85.333v-85.333h-42.667c-47.36 0-84.907-38.4-84.907-85.333l-0.427-597.333c0-46.933 37.973-85.333 85.333-85.333h597.333c46.933 0 85.333 38.4 85.333 85.333v597.333c0 46.933-38.4 85.333-85.333 85.333zM810.668 85.333h-597.333v469.333h597.333v-469.333zM298.668 469.333h213.333v-213.333h-213.333z" />
<glyph unicode="&#xe921;" glyph-name="user-1" d="M511.997 810.667c-70.691 0-127.998-57.308-127.998-128s57.307-128 127.998-128c70.692 0 128 57.308 128 128s-57.308 128-128 128zM298.665 682.667c0 117.821 95.513 213.333 213.332 213.333 117.821 0 213.335-95.512 213.335-213.333s-95.514-213.334-213.335-213.334c-117.819 0-213.332 95.513-213.332 213.334zM85.332-0.001c0 235.643 191.026 426.665 426.665 426.665 235.643 0 426.67-191.022 426.67-426.665 0-23.562-19.103-42.665-42.67-42.665-23.562 0-42.665 19.103-42.665 42.665 0 188.513-152.822 341.335-341.335 341.335-188.511 0-341.332-152.822-341.332-341.335 0-23.562-19.103-42.665-42.666-42.665s-42.667 19.103-42.667 42.665z" />
<glyph unicode="&#xe923;" glyph-name="error-fill-1" d="M512 853.334c-235.52 0-426.667-191.147-426.667-426.667s191.147-426.667 426.667-426.667 426.667 191.147 426.667 426.667-191.147 426.667-426.667 426.667zM554.667 213.334h-85.333v85.333h85.333v-85.333zM554.667 384h-85.333v256h85.333v-256z" />
<glyph unicode="&#xe924;" glyph-name="info-1" d="M512 853.334c-235.52 0-426.667-191.147-426.667-426.667s191.147-426.667 426.667-426.667 426.667 191.147 426.667 426.667-191.147 426.667-426.667 426.667zM554.667 213.334h-85.333v256h85.333v-256zM554.667 554.667h-85.333v85.333h85.333v-85.333z" />
<glyph unicode="&#xe925;" glyph-name="trash-1" d="M255.999 128c0-46.933 38.4-85.333 85.333-85.333h341.333c46.933 0 85.333 38.4 85.333 85.333v512h-512v-512zM810.666 768h-149.333l-42.667 42.667h-213.333l-42.667-42.667h-149.333v-85.333h597.333v85.333z" />
<glyph unicode="&#xe926;" glyph-name="pin-1" d="M682.667 682.667v-490.667c0-94.293-76.373-170.667-170.667-170.667s-170.667 76.373-170.667 170.667v533.333c0 58.88 47.787 106.667 106.667 106.667s106.667-47.787 106.667-106.667v-448c0-23.467-19.2-42.667-42.667-42.667s-42.667 19.2-42.667 42.667v405.333h-64v-405.333c0-58.88 47.787-106.667 106.667-106.667s106.667 47.787 106.667 106.667v448c0 94.293-76.373 170.667-170.667 170.667s-170.667-76.373-170.667-170.667v-533.333c0-129.707 104.96-234.667 234.667-234.667s234.667 104.96 234.667 234.667v490.667h-64z" />
<glyph unicode="&#xe927;" glyph-name="cloud-fill-1" d="M766.8 494.613c-23.573 119.6-128.613 209.387-254.8 209.387-100.187 0-187.2-56.853-230.533-140.053-104.347-11.093-185.467-99.493-185.467-206.613 0-114.747 93.253-208 208-208h450.667c95.68 0 173.333 77.653 173.333 173.333 0 91.52-71.067 165.707-161.2 171.947zM581.333 391.999v-138.667h-138.667v138.667h-104l173.333 173.333 173.333-173.333h-104z" />
<glyph unicode="&#xe928;" glyph-name="secure-1" d="M512 853.334l-341.333-128v-259.84c0-215.467 145.493-416.427 341.333-465.493 195.84 49.067 341.333 250.027 341.333 465.493v259.84l-341.333 128zM466.773 275.627l-151.040 151.040 60.16 60.16 90.453-90.453 180.907 180.907 60.16-60.16-240.64-241.493z" />
<glyph unicode="&#xe929;" glyph-name="unsecure-1" d="M512 853.334l-341.333-128v-259.84c0-215.467 145.493-416.427 341.333-465.493 195.84 49.067 341.333 250.027 341.333 465.493v259.84l-341.333 128zM661.333 337.494l-60.16-60.16-89.173 88.747-89.173-88.747-60.16 60.16 89.173 89.173-89.173 89.173 60.16 60.16 89.173-89.173 89.173 89.173 60.16-60.16-88.747-89.173 88.747-89.173z" />
<glyph unicode="&#xe92a;" glyph-name="error-shield-1" d="M512 853.334l-341.333-128v-259.84c0-215.467 145.493-416.427 341.333-465.493 195.84 49.067 341.333 250.027 341.333 465.493v259.84l-341.333 128zM554.667 256h-85.333v85.333h85.333v-85.333zM554.667 426.667h-85.333v213.333h85.333v-213.333z" />
<glyph unicode="&#xe92e;" glyph-name="leaderboard-1" d="M277.333 42.667h-149.333c-23.467 0-42.667 19.2-42.667 42.667v426.667c0 23.467 19.2 42.667 42.667 42.667h149.333c23.467 0 42.667-19.2 42.667-42.667v-426.667c0-23.467-19.2-42.667-42.667-42.667zM586.667 810.667h-149.333c-23.467 0-42.667-19.2-42.667-42.667v-682.667c0-23.467 19.2-42.667 42.667-42.667h149.333c23.467 0 42.667 19.2 42.667 42.667v682.667c0 23.467-19.2 42.667-42.667 42.667zM896 469.334h-149.333c-23.467 0-42.667-19.2-42.667-42.667v-341.333c0-23.467 19.2-42.667 42.667-42.667h149.333c23.467 0 42.667 19.2 42.667 42.667v341.333c0 23.467-19.2 42.667-42.667 42.667z" />
<glyph unicode="&#xe930;" glyph-name="help-square-1" d="M810.666 874.667h-597.333c-47.36 0-85.333-38.4-85.333-85.333v-597.333c0-46.933 37.973-85.333 85.333-85.333h170.667l128-128 128 128h170.667c46.933 0 85.333 38.4 85.333 85.333v597.333c0 46.933-38.4 85.333-85.333 85.333zM810.666 192h-206.080l-92.587-92.587-92.587 92.587h-206.080v597.333h597.333v-597.333zM469.332 320h85.333v-85.333h-85.333zM511.999 661.333c46.933 0 85.333-38.4 85.333-85.333 0-85.333-128-74.667-128-213.333h85.333c0 96 128 106.667 128 213.333 0 94.293-76.373 170.667-170.667 170.667s-170.667-76.373-170.667-170.667h85.333c0 46.933 38.4 85.333 85.333 85.333z" />
<glyph unicode="&#xe931;" glyph-name="more-1" d="M347.396 426.667c0-55.867-45.286-101.153-101.153-101.153s-101.153 45.286-101.153 101.153c0 55.867 45.286 101.153 101.153 101.153s101.153-45.286 101.153-101.153zM613.185 426.667c0-55.867-45.286-101.153-101.153-101.153s-101.153 45.286-101.153 101.153c0 55.867 45.286 101.153 101.153 101.153s101.153-45.286 101.153-101.153zM878.91 426.667c0-55.867-45.286-101.153-101.153-101.153s-101.153 45.286-101.153 101.153c0 55.867 45.286 101.153 101.153 101.153s101.153-45.286 101.153-101.153z" />
<glyph unicode="&#xe932;" glyph-name="deposit-1" horiz-adv-x="1126" d="M224.6 874.654v-121.907h-124.121v-81.269h124.121v-121.907h82.749v121.907h124.121v81.269h-124.121v121.905h-82.749zM472.845 752.75v-121.905h-124.121v-121.905h-124.123v-406.351c0-21.555 8.717-42.224 24.235-57.464s36.567-23.803 58.509-23.803h579.235c45.928 0 82.745 36.167 82.745 81.267v40.635h-372.365c-21.947 0-42.992 8.563-58.509 23.803s-24.235 35.913-24.235 57.469v325.079c0 21.553 8.717 42.227 24.235 57.468s36.567 23.804 58.509 23.804h372.365v40.635c0 21.553-8.715 42.225-24.233 57.468s-36.563 23.804-58.511 23.804h-413.74zM596.967 549.572v-325.079h413.739v325.079h-413.739zM762.465 447.988c34.339 0 62.061-27.227 62.061-60.952s-27.723-60.952-62.061-60.952c-34.345 0-62.061 27.225-62.061 60.952s27.716 60.952 62.061 60.952z" />
<glyph unicode="&#xe933;" glyph-name="withdraw-1" horiz-adv-x="1126" d="M547.699 192.006h-93.257c-78.169 0-117.213 0-141.503 25.004s-24.289 65.192-24.289 145.664v266.66h580.268v-266.66c0-80.472 0-120.66-24.289-145.664s-63.333-25.004-141.503-25.004h-93.257v212.176l28.185-33.875c2.657-3.197 5.896-5.817 9.539-7.724 3.641-1.903 7.612-3.053 11.683-3.372 4.073-0.327 8.164 0.175 12.051 1.481 3.88 1.307 7.477 3.383 10.579 6.115 3.105 2.736 5.653 6.072 7.501 9.824 1.851 3.745 2.963 7.833 3.28 12.024s-0.175 8.411-1.441 12.404c-1.269 3.995-3.284 7.699-5.944 10.892l-82.895 99.54c-2.917 3.513-6.54 6.329-10.621 8.268-4.077 1.933-8.513 2.935-13.004 2.935s-8.927-1-13.004-2.935c-4.077-1.939-7.704-4.757-10.621-8.268l-82.893-99.54c-2.656-3.192-4.675-6.897-5.943-10.892s-1.755-8.212-1.443-12.404c0.317-4.193 1.431-8.279 3.28-12.024 1.849-3.752 4.399-7.088 7.5-9.824 3.105-2.732 6.699-4.808 10.579-6.115 3.887-1.307 7.977-1.807 12.051-1.481 4.073 0.321 8.041 1.473 11.683 3.372 3.641 1.905 6.881 4.527 9.539 7.724l28.185 33.875v-212.176zM289.896 693.331h577.783c-2.156 33.707-7.833 55.337-23.047 70.995-24.289 25.003-63.333 25.003-141.503 25.003h-248.687c-78.169 0-117.213 0-141.503-25.003-15.212-15.657-20.931-37.247-23.047-70.995zM325.497 64.010h506.529c89.113 0 161.231 76.803 161.231 171.523 0 55.039-24.329 103.976-62.171 135.38v-12.031c0-36.952 0-70.831-3.607-98.345-3.939-30.341-13.263-62.421-38.879-88.751-25.615-26.405-56.783-36.007-86.211-40.105-26.775-3.669-59.685-3.669-95.577-3.669h-256.104c-35.852 0-68.763 0-95.493 3.716-29.471 4.051-60.637 13.652-86.209 40.019-25.656 26.369-34.983 58.451-38.961 88.744-3.565 27.563-3.565 61.44-3.565 98.392v12.031c-19.533-16.347-35.259-36.996-46.017-60.427s-16.28-49.039-16.153-74.953c0-94.719 72.161-171.521 161.189-171.521z" />
<glyph unicode="&#xe934;" glyph-name="dashboard-1" d="M170.667 384h256c23.467 0 42.667 19.2 42.667 42.667v341.333c0 23.467-19.2 42.667-42.667 42.667h-256c-23.467 0-42.667-19.2-42.667-42.667v-341.333c0-23.467 19.2-42.667 42.667-42.667zM170.667 42.667h256c23.467 0 42.667 19.2 42.667 42.667v170.667c0 23.467-19.2 42.667-42.667 42.667h-256c-23.467 0-42.667-19.2-42.667-42.667v-170.667c0-23.467 19.2-42.667 42.667-42.667zM597.333 42.667h256c23.467 0 42.667 19.2 42.667 42.667v341.333c0 23.467-19.2 42.667-42.667 42.667h-256c-23.467 0-42.667-19.2-42.667-42.667v-341.333c0-23.467 19.2-42.667 42.667-42.667zM554.667 768v-170.667c0-23.467 19.2-42.667 42.667-42.667h256c23.467 0 42.667 19.2 42.667 42.667v170.667c0 23.467-19.2 42.667-42.667 42.667h-256c-23.467 0-42.667-19.2-42.667-42.667z" />
<glyph unicode="&#xe935;" glyph-name="home-fill-1" d="M512 810.667l-341.333-256v-512h213.333v298.667h256v-298.667h213.333v512l-341.333 256z" />
<glyph unicode="&#xe936;" glyph-name="add-circle-fill-1" d="M512 853.334c-235.52 0-426.667-191.147-426.667-426.667s191.147-426.667 426.667-426.667c235.52 0 426.667 191.147 426.667 426.667s-191.147 426.667-426.667 426.667zM682.667 384h-128v-128c0-23.467-19.2-42.667-42.667-42.667s-42.667 19.2-42.667 42.667v128h-128c-23.467 0-42.667 19.2-42.667 42.667s19.2 42.667 42.667 42.667h128v128c0 23.467 19.2 42.667 42.667 42.667s42.667-19.2 42.667-42.667v-128h128c23.467 0 42.667-19.2 42.667-42.667s-19.2-42.667-42.667-42.667z" />
<glyph unicode="&#xe939;" glyph-name="download-1" d="M707.84 554.667h-67.84v213.333c0 23.467-19.2 42.667-42.667 42.667h-170.667c-23.467 0-42.667-19.2-42.667-42.667v-213.333h-67.84c-37.973 0-57.173-46.080-30.293-72.96l195.84-195.84c16.64-16.64 43.52-16.64 60.16 0l195.84 195.84c26.88 26.88 8.107 72.96-29.867 72.96zM213.333 128c0-23.467 19.2-42.667 42.667-42.667h512c23.467 0 42.667 19.2 42.667 42.667s-19.2 42.667-42.667 42.667h-512c-23.467 0-42.667-19.2-42.667-42.667z" />
<glyph unicode="&#xe93a;" glyph-name="filter-kebab-1" d="M469.333 170.667h85.333c23.467 0 42.667 19.2 42.667 42.667s-19.2 42.667-42.667 42.667h-85.333c-23.467 0-42.667-19.2-42.667-42.667s19.2-42.667 42.667-42.667zM128 640c0-23.467 19.2-42.667 42.667-42.667h682.667c23.467 0 42.667 19.2 42.667 42.667s-19.2 42.667-42.667 42.667h-682.667c-23.467 0-42.667-19.2-42.667-42.667zM298.667 384h426.667c23.467 0 42.667 19.2 42.667 42.667s-19.2 42.667-42.667 42.667h-426.667c-23.467 0-42.667-19.2-42.667-42.667s19.2-42.667 42.667-42.667z" />
<glyph unicode="&#xe93b;" glyph-name="funds-1" d="M364.16 682.654h295.68l72.64 145.6c3.358 6.732 4.237 14.432 2.479 21.747-1.754 7.315-6.033 13.777-12.079 18.253-6.071 4.527-13.551 6.754-21.107 6.285-7.561-0.468-14.707-3.603-20.173-8.845-20.937-16.33-47.087-24.516-73.6-23.040-26.359-1.46-52.369 6.604-73.28 22.72-5.995 5.96-14.106 9.305-22.558 9.305-8.457 0-16.567-3.345-22.562-9.305-20.983-16.216-47.125-24.287-73.6-22.72-26.361-1.46-52.369 6.604-73.28 22.72-5.378 5.42-12.516 8.737-20.126 9.355s-15.19-1.506-21.371-5.988c-6.182-4.481-10.557-11.025-12.336-18.45s-0.845-15.241 2.633-22.037l72.64-145.6zM679.68 597.313h-335.36c-68.48-82.88-184.32-247.36-184.32-416 0-146.24 111.36-224 192-224h320c80.64 0 192 77.76 192 224 0 168.64-115.84 333.12-184.32 416zM544 149.312v-32c0-8.486-3.371-16.627-9.374-22.626-5.999-6.003-14.14-9.374-22.626-9.374s-16.627 3.371-22.626 9.374c-6.003 5.999-9.374 14.14-9.374 22.626v32c-16.806 0.047-33.31 4.501-47.855 12.928-14.543 8.422-26.621 20.518-35.025 35.072-2.633 3.622-4.478 7.757-5.414 12.134s-0.942 8.905-0.019 13.286c0.923 4.382 2.756 8.521 5.379 12.147 2.623 3.631 5.979 6.669 9.85 8.917 3.871 2.253 8.171 3.665 12.622 4.147 4.451 0.486 8.955 0.030 13.217-1.335 4.267-1.365 8.196-3.61 11.537-6.588 3.345-2.982 6.025-6.63 7.868-10.709 2.82-4.881 6.878-8.934 11.767-11.746 4.89-2.807 10.432-4.275 16.073-4.254h64c8.486 0 16.627 3.371 22.626 9.374 6.003 5.999 9.374 14.14 9.374 22.626s-3.371 16.627-9.374 22.626c-5.999 6.003-14.14 9.374-22.626 9.374h-64c-25.459 0-49.877 10.116-67.882 28.117-18.004 18.005-28.118 42.423-28.118 67.883s10.114 49.877 28.118 67.883c18.005 18.005 42.423 28.117 67.882 28.117v32c0 8.486 3.371 16.627 9.374 22.628 5.999 6.001 14.14 9.373 22.626 9.373s16.627-3.372 22.626-9.373c6.003-6.001 9.374-14.141 9.374-22.628v-32c16.806-0.043 33.31-4.501 47.855-12.924 14.545-8.427 26.62-20.518 35.025-35.076 2.633-3.622 4.476-7.753 5.414-12.134 0.934-4.378 0.943-8.905 0.017-13.286-0.922-4.378-2.756-8.521-5.376-12.147-2.624-3.627-5.982-6.665-9.852-8.917-3.87-2.249-8.171-3.665-12.621-4.147-4.454-0.486-8.956-0.030-13.218 1.335-4.267 1.365-8.196 3.61-11.537 6.592-3.345 2.978-6.025 6.626-7.868 10.705-2.82 4.885-6.878 8.934-11.767 11.746-4.89 2.807-10.432 4.275-16.073 4.254h-64c-8.486 0-16.627-3.371-22.626-9.374-6.003-5.999-9.374-14.14-9.374-22.626s3.371-16.627 9.374-22.626c5.999-6.003 14.14-9.374 22.626-9.374h64c25.459 0 49.877-10.112 67.883-28.117 18.001-18.005 28.117-42.423 28.117-67.883s-10.116-49.877-28.117-67.883c-18.005-18.001-42.423-28.117-67.883-28.117z" />
<glyph unicode="&#xe93c;" glyph-name="money-1" d="M640 256h128c23.467 0 42.667 19.2 42.667 42.667v256c0 23.467-19.2 42.667-42.667 42.667h-128c-23.467 0-42.667-19.2-42.667-42.667v-256c0-23.467 19.2-42.667 42.667-42.667zM682.667 512h42.667v-170.667h-42.667v170.667zM384 256h128c23.467 0 42.667 19.2 42.667 42.667v256c0 23.467-19.2 42.667-42.667 42.667h-128c-23.467 0-42.667-19.2-42.667-42.667v-256c0-23.467 19.2-42.667 42.667-42.667zM426.667 512h42.667v-170.667h-42.667v170.667zM256 597.334c-23.467 0-42.667-19.2-42.667-42.667v-256c0-23.467 19.2-42.667 42.667-42.667s42.667 19.2 42.667 42.667v256c0 23.467-19.2 42.667-42.667 42.667zM85.333 682.667v-512c0-46.933 38.4-85.333 85.333-85.333h682.667c46.933 0 85.333 38.4 85.333 85.333v512c0 46.933-38.4 85.333-85.333 85.333h-682.667c-46.933 0-85.333-38.4-85.333-85.333zM810.667 170.667h-597.333c-23.467 0-42.667 19.2-42.667 42.667v426.667c0 23.467 19.2 42.667 42.667 42.667h597.333c23.467 0 42.667-19.2 42.667-42.667v-426.667c0-23.467-19.2-42.667-42.667-42.667z" />
<glyph unicode="&#xe93d;" glyph-name="online-bank-1" d="M426.057 830.953h185.699c6.729 0 12.203 5.536 12.203 12.361v52.687h-210.099v-52.687c0-6.825 5.466-12.361 12.197-12.361zM713.861 896h-35.601v-52.687c0-37.146-29.828-67.36-66.505-67.36h-185.699c-36.669 0-66.5 30.214-66.5 67.36v52.687h-49.417c-53.384 0-96.805-43.979-96.805-98.048v-742.571c0-54.071 43.421-98.048 96.805-98.048h403.722c53.385 0 96.806 43.977 96.806 98.048v742.571c0 54.069-43.422 98.048-96.806 98.048zM496.509 379.021c-29.082 0-52.74 23.97-52.74 53.431v45.406c0 27.844 21.129 50.781 47.987 53.216v26.412c0 15.189 12.164 27.5 27.153 27.5 14.997 0 27.153-12.311 27.153-27.5v-26.197h20.843c14.997 0 27.153-12.311 27.153-27.502 0-15.181-12.156-27.499-27.153-27.499h-68.834v-42.266h43.247c29.082 0 52.745-23.97 52.745-53.431v-45.406c0-27.844-21.133-50.782-47.996-53.214v-26.415c0-15.189-12.16-27.499-27.149-27.499-14.997 0-27.153 12.309-27.153 27.499v26.197h-20.843c-14.997 0-27.153 12.314-27.153 27.503 0 15.181 12.156 27.499 27.153 27.499h68.83v42.266h-43.243zM611.76 20.6h-185.703c-14.99 0-27.152 12.318-27.152 27.499 0 15.189 12.162 27.499 27.152 27.499h185.703c14.997 0 27.153-12.309 27.153-27.499 0-15.181-12.156-27.499-27.153-27.499z" />
<glyph unicode="&#xe93f;" glyph-name="android-1" d="M256 170.667c0-23.467 19.2-42.667 42.667-42.667h42.667v-149.333c0-35.413 28.587-64 64-64s64 28.587 64 64v149.333h85.333v-149.333c0-35.413 28.587-64 64-64s64 28.587 64 64v149.333h42.667c23.467 0 42.667 19.2 42.667 42.667v426.667h-512v-426.667zM149.333 597.334c-35.413 0-64-28.587-64-64v-298.667c0-35.413 28.587-64 64-64s64 28.587 64 64v298.667c0 35.413-28.587 64-64 64zM874.667 597.334c-35.413 0-64-28.587-64-64v-298.667c0-35.413 28.587-64 64-64s64 28.587 64 64v298.667c0 35.413-28.587 64-64 64zM662.613 846.507l55.467 55.467c8.533 8.533 8.533 21.76 0 30.293s-21.76 8.533-30.293 0l-63.147-63.147c-33.707 17.067-72.107 26.88-112.64 26.88-40.96 0-79.36-9.813-113.493-26.88l-63.573 63.147c-8.533 8.533-21.76 8.533-30.293 0s-8.533-21.76 0-30.293l55.893-55.893c-63.147-46.507-104.533-121.173-104.533-206.080h512c0 84.907-41.387 160-105.387 206.507zM426.667 725.334h-42.667v42.667h42.667v-42.667zM640 725.334h-42.667v42.667h42.667v-42.667z" />
<glyph unicode="&#xe940;" glyph-name="apple-1" d="M600.166 729.334c24 29 40.998 68.5 40.998 108.5 0 5.5-0.499 11-1.498 15.5-39.002-1.5-85.999-26-114.001-59-21.999-25-42.5-65-42.5-105 0-6 1.003-12 1.502-14 2.5-0.5 6.498-1 10.5-1 34.999 0 78.997 23.5 104.998 55zM627.665 665.834c-58.5 0-105.997-35.5-136.499-35.5-32.499 0-74.999 33.5-125.999 33.5-96.5 0-194.5-80-194.5-230.502 0-93.999 36-192.998 81-256.998 38.5-53.999 72-98.5 120.5-98.5 48 0 68.998 32 128.501 32 60.497 0 74.001-30.997 126.997-30.997 52.501 0 87.501 48 120.503 95.497 36.996 54.502 52.497 107.503 52.996 110.003-2.999 0.998-103.497 41.997-103.497 157.001 0 99.498 78.997 143.998 83.499 147.498-52.002 75-131.499 77-153.502 77z" />
<glyph unicode="&#xe941;" glyph-name="hub-1" d="M725.333 213.325l-170.667 170.667v135.679c57.6 20.907 96.427 80.64 82.347 147.627-10.667 50.347-52.48 90.453-103.253 98.987-80.213 13.227-149.76-48.213-149.76-126.293 0-55.467 35.84-102.4 85.333-120.32v-135.679l-170.667-170.667h-128c-23.467 0-42.667-19.2-42.667-42.667v-128c0-23.467 19.2-42.667 42.667-42.667h128c23.467 0 42.667 19.2 42.667 42.667v87.467l170.667 179.2 170.667-179.2v-87.467c0-23.467 19.2-42.667 42.667-42.667h128c23.467 0 42.667 19.2 42.667 42.667v128c0 23.467-19.2 42.667-42.667 42.667h-128z" />
<glyph unicode="&#xe942;" glyph-name="cancel-circle-fill-1" d="M512 853.334c-235.947 0-426.667-190.72-426.667-426.667s190.72-426.667 426.667-426.667c235.947 0 426.667 190.72 426.667 426.667s-190.72 426.667-426.667 426.667zM695.467 243.2c-16.64-16.64-43.52-16.64-60.16 0l-123.307 123.307-123.307-123.307c-16.64-16.64-43.52-16.64-60.16 0s-16.64 43.52 0 60.16l123.307 123.307-123.307 123.307c-16.64 16.64-16.64 43.52 0 60.16s43.52 16.64 60.16 0l123.307-123.307 123.307 123.307c16.64 16.64 43.52 16.64 60.16 0s16.64-43.52 0-60.16l-123.307-123.307 123.307-123.307c16.213-16.213 16.213-43.52 0-60.16z" />
<glyph unicode="&#xe943;" glyph-name="copy-1" d="M192 1.067q-25.6 0-44.8 19.2t-19.2 44.8v643.2h64v-643.2h505.6v-64zM320 129.067q-25.6 0-44.8 19.2t-19.2 44.8v597.333q0 25.6 19.2 44.8t44.8 19.2h469.333q25.6 0 44.8-19.2t19.2-44.8v-597.333q0-25.6-19.2-44.8t-44.8-19.2zM320 193.067h469.333v597.333h-469.333v-597.333zM320 193.067v0z" />
<glyph unicode="&#xe944;" glyph-name="settings-1" d="M413.867-0.001l-21.333 134.4q-20.267 7.467-42.667 20.267t-39.467 26.667l-125.867-57.6-99.2 174.933 115.2 84.267q-2.133 9.6-2.667 21.867t-0.533 21.867 0.533 21.867 2.667 21.867l-115.2 84.267 99.2 174.933 125.867-57.6q17.067 13.867 39.467 26.667t42.667 19.2l21.333 135.467h196.267l21.333-134.4q20.267-7.467 43.2-19.733t38.933-27.2l125.867 57.6 99.2-174.933-115.2-82.133q2.133-10.667 2.667-22.933t0.533-22.933-0.533-22.4-2.667-22.4l115.2-83.2-99.2-174.933-125.867 57.6q-17.067-13.867-38.933-27.2t-43.2-19.733l-21.333-134.4zM512 287.999q57.6 0 98.133 40.533t40.533 98.133-40.533 98.133-98.133 40.533-98.133-40.533-40.533-98.133 40.533-98.133 98.133-40.533zM512 351.999q-30.933 0-52.8 21.867t-21.867 52.8 21.867 52.8 52.8 21.867 52.8-21.867 21.867-52.8-21.867-52.8-52.8-21.867zM465.067 63.999h93.867l14.933 119.467q35.2 8.533 66.667 26.667t57.067 43.733l113.067-49.067 42.667 76.8-100.267 73.6q4.267 18.133 6.933 35.733t2.667 35.733-2.133 35.733-7.467 35.733l100.267 73.6-42.667 76.8-113.067-49.067q-24.533 27.733-55.467 46.4t-68.267 24l-14.933 119.467h-93.867l-14.933-119.467q-36.267-7.467-67.733-25.6t-56-44.8l-113.067 49.067-42.667-76.8 100.267-73.6q-4.267-18.133-6.933-35.733t-2.667-35.733 2.667-35.733 6.933-35.733l-100.267-73.6 42.667-76.8 113.067 49.067q25.6-25.6 57.067-43.733t66.667-26.667z" />
<glyph unicode="&#xe945;" glyph-name="warning-1" d="M190.72 42.667h642.56c65.707 0 106.667 71.253 73.813 128l-321.28 555.093c-32.853 56.747-114.773 56.747-147.627 0l-321.28-555.093c-32.853-56.747 8.107-128 73.813-128zM512 341.334c-23.467 0-42.667 19.2-42.667 42.667v85.333c0 23.467 19.2 42.667 42.667 42.667s42.667-19.2 42.667-42.667v-85.333c0-23.467-19.2-42.667-42.667-42.667zM554.667 170.667h-85.333v85.333h85.333v-85.333z" />
<glyph unicode="&#xe94a;" glyph-name="close-1" d="M512 504.851l275.85 275.85q16.29 16.29 39.087 16.29t39.087-16.29 16.29-39.087-16.29-39.087l-274.766-275.85 274.766-275.85q16.29-16.29 16.29-39.087t-16.29-39.087-39.087-16.29-39.087 16.29l-275.85 274.766-274.766-274.766q-17.376-16.29-40.183-16.29t-39.087 16.29-16.29 39.087 16.29 39.087l275.85 275.85-275.85 275.85q-16.29 16.29-16.29 39.087t16.29 39.087 39.087 16.29 40.183-16.29z" />
<glyph unicode="&#xe94e;" glyph-name="help-1" d="M506.908 810.632c-212.043-2.821-381.694-177.094-378.873-389.139 2.821-211.887 177.094-381.536 389.139-378.795 211.964 2.822 381.615 177.094 378.795 389.060-2.822 212.043-177.018 381.694-389.060 378.873zM505.811 192.918h-2.116c-32.676 0.939-55.635 25.075-54.773 57.203 0.941 31.578 24.527 54.539 56.105 54.539l1.961-0.079c33.538-1.020 56.341-24.841 55.322-57.909-0.941-31.578-24.134-53.754-56.497-53.754zM643.177 465.611c-7.757-10.893-24.606-24.448-45.841-40.981l-23.507-16.143c-12.851-10.031-20.61-19.435-23.509-28.681-2.351-7.366-3.447-9.246-3.682-24.055l-0.079-3.84h-89.252l0.235 7.601c1.097 31.108 1.882 49.444 14.733 64.567 20.215 23.744 64.881 52.503 66.763 53.756 6.347 4.86 11.755 10.345 15.829 16.143 9.402 12.93 13.476 23.194 13.476 33.146 0 13.871-4.151 26.799-12.224 38.163-7.836 11.049-22.724 16.612-44.273 16.612-21.393 0-35.968-6.818-44.745-20.687-9.088-14.263-13.555-29.308-13.555-44.666v-3.84h-92.23l0.156 3.996c2.43 56.497 22.569 97.167 59.947 120.911 23.507 15.123 52.659 22.801 86.746 22.801 44.587 0 82.357-10.812 111.977-32.205 30.012-21.628 45.293-54.148 45.293-96.463 0-23.663-7.445-45.997-22.255-66.135z" />
<glyph unicode="&#xe950;" glyph-name="user-fill-1" d="M512 810.667c-212.062 0-384-171.938-384-384s171.938-384 384-384c212.062 0 384 171.938 384 384s-171.938 384-384 384zM512 695.86c70.14 0 127.034-56.896 127.034-127.034 0-70.14-56.894-127.034-127.034-127.034-70.138 0-126.955 56.894-126.955 127.034 0 70.138 56.817 127.034 126.955 127.034zM511.921 143.055c-69.982 0-134.086 25.47-183.535 67.71-12.068 10.266-18.965 25.312-18.965 41.143 0 71.157 57.6 128.051 128.678 128.051h147.802c71.157 0 128.523-56.894 128.523-128.051 0-15.831-6.897-30.878-18.965-41.143-49.451-42.161-113.555-67.71-183.537-67.71z" />
<glyph unicode="&#xe955;" glyph-name="home-1" d="M232.42 62.044c0 0-0.698-19.377 16.094-19.377 20.894 0 193.585 0.262 193.585 0.262l0.292 179.036c0 0-2.737 29.493 22.611 29.493h80.35c30.005 0 28.171-29.493 28.171-29.493l-0.348-178.477c0 0 163.785 0 189.51 0 21.303 0 20.343 24.107 20.343 24.107v330.153l-267.098 268.109-283.511-268.141v-335.671zM128 422.676c0 0 24.038-50.054 76.567 0l313.747 299.575 294.133-297.702c60.766-49.463 83.552 0 83.552 0l-377.685 386.118-390.315-387.991zM805.286 722.942h-75.635l0.32-103.558 75.315-72.16v175.718z" />
<glyph unicode="&#xe95e;" glyph-name="whatsapp-1" horiz-adv-x="1020" d="M67.212 432.428c-0.027-81.681 21.48-161.411 62.367-231.703l-66.288-240.148 247.685 64.44c68.245-36.92 145.079-56.387 223.269-56.417h0.199c257.5 0 467.124 207.933 467.227 463.456 0.045 123.845-48.519 240.288-136.727 327.889-88.224 87.589-205.513 135.863-330.503 135.913-257.54 0-467.129-207.9-467.225-463.431zM214.715 212.832l-9.248 14.571c-38.88 61.337-59.397 132.211-59.368 204.999 0.084 212.392 174.285 385.189 388.496 385.189 103.733-0.044 201.217-40.165 274.543-112.965 73.321-72.807 113.673-169.585 113.641-272.527-0.095-212.395-174.299-385.209-388.333-385.209h-0.153c-69.692 0.029-138.043 18.605-197.645 53.701l-14.185 8.348-146.981-38.237 39.244 142.149zM417.676 626.17c-8.747 19.288-17.951 19.669-26.268 20.016-6.811 0.291-14.596 0.269-22.375 0.269-7.785 0-20.436-2.901-31.128-14.491-10.704-11.595-40.864-39.616-40.864-96.605 0-56.992 41.832-112.067 47.663-119.804 5.837-7.721 80.763-128.416 199.42-174.847 98.62-38.587 118.685-30.915 140.093-28.977 21.403 1.925 69.073 28.012 78.797 55.060 9.733 27.048 9.733 50.235 6.812 55.072-2.917 4.827-10.703 7.731-22.379 13.519s-69.073 33.809-79.775 37.683c-10.701 3.863-18.483 5.792-26.276-5.807-7.785-11.58-30.141-37.667-36.953-45.391-6.809-7.744-13.62-8.709-25.295-2.912-11.681 5.811-49.276 18.025-93.883 57.491-34.707 30.696-58.135 68.619-64.947 80.215-6.811 11.58-0.731 17.857 5.123 23.628 5.255 5.191 11.681 13.528 17.523 20.284 5.816 6.767 7.767 11.589 11.659 19.327 3.896 7.731 1.944 14.497-0.969 20.284-2.931 5.803-25.619 63.083-35.992 85.988z" />
<glyph unicode="&#xe961;" glyph-name="check-1" d="M409.391 170.667l-238.724 242.692 59.681 60.676 179.043-182.020 384.261 390.652 59.682-60.674-443.943-451.326z" />
<glyph unicode="&#xe966;" glyph-name="profile-1" d="M512 699.744c47.761 0.009 94.69-12.509 136.098-36.305 41.412-23.796 75.857-58.036 99.9-99.305s36.838-88.119 37.116-135.88c0.273-47.761-11.981-94.758-35.546-136.299-15.927 20.698-36.399 37.457-59.84 48.981-23.437 11.524-49.212 17.502-75.328 17.476h-204.8c-26.118 0.026-51.891-5.952-75.329-17.476s-43.912-28.284-59.838-48.981c-23.564 41.54-35.82 88.538-35.544 136.299s13.073 94.612 37.115 135.88c24.042 41.268 58.487 75.509 99.898 99.305s88.338 36.314 136.099 36.305zM783.121 219.286c45.636 59.494 70.323 132.407 70.212 207.394 0 188.516-152.815 341.331-341.333 341.331s-341.333-152.815-341.333-341.331c-0.113-74.987 24.573-147.9 70.212-207.394l-0.171-0.614 12.117-14.097c32.013-37.431 71.761-67.469 116.505-88.055 44.744-20.582 93.419-31.219 142.669-31.172 69.201-0.128 136.785 20.89 193.707 60.245 24.265 16.764 46.272 36.587 65.468 58.982l12.117 14.097-0.171 0.614zM512 631.478c-27.157 0-53.205-10.789-72.41-29.993-19.202-19.203-29.99-45.249-29.99-72.407s10.789-53.203 29.99-72.407c19.204-19.204 45.252-29.99 72.41-29.99s53.205 10.786 72.41 29.99c19.2 19.204 29.99 45.248 29.99 72.407s-10.79 53.204-29.99 72.407c-19.204 19.204-45.252 29.993-72.41 29.993z" />
<glyph unicode="&#xe975;" glyph-name="play-1" d="M741.631 458.643q16.213-12.157 16.213-32.415t-16.213-31.063l-413.338-299.869q-18.906-13.509-40.527-2.704t-21.61 35.119v598.386q0 22.962 21.61 34.443t40.527-3.38l413.338-298.517z" />
<glyph unicode="&#xe976;" glyph-name="clear-filter-1" d="M586.75 131.983l100.632 99.184-100.632 100.632 50.316 48.882 99.184-99.184 99.184 99.184 50.316-48.882-99.184-100.632 99.184-99.184-50.316-50.316-99.184 100.632-99.184-100.632zM138.25 794.667h632.5v-70.434h-2.882l-242.934-242.934v-422.632l-140.882 140.882v281.75l-242.934 242.934h-2.882v70.434z" />
<glyph unicode="&#xe977;" glyph-name="filter-1" d="M188.875 802.667h646.25v-71.973h-2.938l-248.223-248.223v-431.82l-143.94 143.94v287.875l-248.223 248.223h-2.938v71.973z" />
</font>
</defs>
</svg>
